# xmcd
#
# Track frame offsets: 
#        182
#        12022
#        26885
#        41545
#        54172
#        69370
#        80090
#        93175
#        104710
#        116182
#        128457
#        139932
#        154357
#        164750
#        179920
#        192220
#
# Disc length: 2705 seconds
#
# Revision: 3
# Processed by: cddbd v1.5PL3 Copyright (c) Steve Scherf et al.
# Submitted via: ExactAudioCopy v0.90b4
#
DISCID=e20a8f10
DTITLE=Louis Jordan - No Moe!  Louis Jordan: The Greatest Hits
DYEAR=1900
DGENRE=R&B
TTITLE0=Saturday Night Fish Fry
TTITLE1=Is You Is Or Is You Ain't (Ma Baby)
TTITLE2=Don't Let The Sun Catch You Crying
TTITLE3=Salt Pork, West Virginia
TTITLE4=Early In The Mornin'
TTITLE5=Sunday
TTITLE6=Knock Me A Kiss
TTITLE7=Ain't Nobody Here But Us Chickens
TTITLE8=The Slop
TTITLE9=Let The Good Times Roll
TTITLE10=Sweet Lorraine
TTITLE11=Run Joe
TTITLE12=Choo Choo Ch'Boogie
TTITLE13=I'm Gonna Move To The Outskirts Of Town
TTITLE14=Beware Brother Beware
TTITLE15=Caldonia
EXTD=
EXTT0=
EXTT1=
EXTT2=
EXTT3=
EXTT4=
EXTT5=
EXTT6=
EXTT7=
EXTT8=
EXTT9=
EXTT10=
EXTT11=
EXTT12=
EXTT13=
EXTT14=
EXTT15=
PLAYORDER=
